<mxfile host="app.diagrams.net" modified="2023-02-04T16:34:27.614Z" agent="5.0 (Windows NT 10.0; Win64; x64) AppleWebKit/537.36 (KHTML, like Gecko) Chrome/109.0.0.0 Safari/537.36" etag="4LT2rhvd5_5Gg90RzfMC" version="20.8.16" type="github">
  <diagram name="Page-1" id="52a04d89-c75d-2922-d76d-85b35f80e030">
    <mxGraphModel dx="1375" dy="705" grid="1" gridSize="10" guides="1" tooltips="1" connect="1" arrows="1" fold="1" page="1" pageScale="1" pageWidth="1100" pageHeight="850" background="none" math="0" shadow="0">
      <root>
        <mxCell id="0" />
        <mxCell id="1" parent="0" />
        <mxCell id="1fdf3b25b50cf41e-27" style="edgeStyle=none;html=1;labelBackgroundColor=none;startFill=0;startSize=8;endFill=1;endSize=8;fontFamily=Verdana;fontSize=12;" parent="1" edge="1">
          <mxGeometry relative="1" as="geometry">
            <mxPoint x="190" y="77.88" as="sourcePoint" />
            <mxPoint x="230" y="80" as="targetPoint" />
          </mxGeometry>
        </mxCell>
        <mxCell id="1fdf3b25b50cf41e-28" style="edgeStyle=none;html=1;labelBackgroundColor=none;startFill=0;startSize=8;endFill=1;endSize=8;fontFamily=Verdana;fontSize=12;" parent="1" edge="1">
          <mxGeometry relative="1" as="geometry">
            <mxPoint x="360" y="81.41" as="sourcePoint" />
            <mxPoint x="410" y="82" as="targetPoint" />
          </mxGeometry>
        </mxCell>
        <mxCell id="N5OZri8Tr2mn7tA0tru3-9" value="" style="endArrow=classic;html=1;rounded=0;" edge="1" parent="1">
          <mxGeometry width="50" height="50" relative="1" as="geometry">
            <mxPoint x="494.40999999999997" y="118" as="sourcePoint" />
            <mxPoint x="494.40999999999997" y="155" as="targetPoint" />
          </mxGeometry>
        </mxCell>
        <mxCell id="N5OZri8Tr2mn7tA0tru3-13" value="encerrar = &#39;n&#39;" style="rounded=1;whiteSpace=wrap;html=1;fontStyle=1" vertex="1" parent="1">
          <mxGeometry x="440" y="170" width="110" height="40" as="geometry" />
        </mxCell>
        <mxCell id="N5OZri8Tr2mn7tA0tru3-15" value="" style="endArrow=classic;html=1;rounded=0;" edge="1" parent="1">
          <mxGeometry width="50" height="50" relative="1" as="geometry">
            <mxPoint x="494.40999999999997" y="210" as="sourcePoint" />
            <mxPoint x="494.5" y="240" as="targetPoint" />
          </mxGeometry>
        </mxCell>
        <mxCell id="N5OZri8Tr2mn7tA0tru3-16" value="" style="endArrow=classic;html=1;rounded=0;" edge="1" parent="1">
          <mxGeometry width="50" height="50" relative="1" as="geometry">
            <mxPoint x="494.41" y="325" as="sourcePoint" />
            <mxPoint x="494" y="360" as="targetPoint" />
          </mxGeometry>
        </mxCell>
        <mxCell id="N5OZri8Tr2mn7tA0tru3-19" value="" style="endArrow=classic;html=1;rounded=0;" edge="1" parent="1">
          <mxGeometry width="50" height="50" relative="1" as="geometry">
            <mxPoint x="494.41" y="425" as="sourcePoint" />
            <mxPoint x="494" y="460" as="targetPoint" />
          </mxGeometry>
        </mxCell>
        <mxCell id="N5OZri8Tr2mn7tA0tru3-22" value="" style="endArrow=classic;html=1;rounded=0;" edge="1" parent="1">
          <mxGeometry width="50" height="50" relative="1" as="geometry">
            <mxPoint x="494.41" y="530" as="sourcePoint" />
            <mxPoint x="494" y="570" as="targetPoint" />
          </mxGeometry>
        </mxCell>
        <mxCell id="N5OZri8Tr2mn7tA0tru3-25" value="" style="endArrow=classic;html=1;rounded=0;" edge="1" parent="1">
          <mxGeometry width="50" height="50" relative="1" as="geometry">
            <mxPoint x="557.5" y="626.91" as="sourcePoint" />
            <mxPoint x="597.5" y="626.91" as="targetPoint" />
          </mxGeometry>
        </mxCell>
        <mxCell id="N5OZri8Tr2mn7tA0tru3-27" value="saldo = saldo +&amp;nbsp;&lt;br&gt;quantidade" style="rounded=1;whiteSpace=wrap;html=1;" vertex="1" parent="1">
          <mxGeometry x="610" y="598.75" width="110" height="57.5" as="geometry" />
        </mxCell>
        <mxCell id="N5OZri8Tr2mn7tA0tru3-28" value="" style="endArrow=classic;html=1;rounded=0;" edge="1" parent="1">
          <mxGeometry width="50" height="50" relative="1" as="geometry">
            <mxPoint x="720" y="626.91" as="sourcePoint" />
            <mxPoint x="770" y="626.91" as="targetPoint" />
          </mxGeometry>
        </mxCell>
        <mxCell id="N5OZri8Tr2mn7tA0tru3-40" value="" style="endArrow=classic;html=1;rounded=0;" edge="1" parent="1">
          <mxGeometry width="50" height="50" relative="1" as="geometry">
            <mxPoint x="494.41" y="665" as="sourcePoint" />
            <mxPoint x="494.41" y="704" as="targetPoint" />
          </mxGeometry>
        </mxCell>
        <mxCell id="N5OZri8Tr2mn7tA0tru3-43" value="" style="endArrow=classic;html=1;rounded=0;" edge="1" parent="1">
          <mxGeometry width="50" height="50" relative="1" as="geometry">
            <mxPoint x="494.41" y="795" as="sourcePoint" />
            <mxPoint x="494" y="980" as="targetPoint" />
          </mxGeometry>
        </mxCell>
        <mxCell id="N5OZri8Tr2mn7tA0tru3-45" value="" style="edgeStyle=segmentEdgeStyle;endArrow=classic;html=1;curved=0;rounded=0;endSize=8;startSize=8;" edge="1" parent="1">
          <mxGeometry width="50" height="50" relative="1" as="geometry">
            <mxPoint x="850" y="660" as="sourcePoint" />
            <mxPoint x="500" y="698.5" as="targetPoint" />
            <Array as="points">
              <mxPoint x="850" y="698.5" />
            </Array>
          </mxGeometry>
        </mxCell>
        <mxCell id="N5OZri8Tr2mn7tA0tru3-47" value="" style="endArrow=classic;html=1;rounded=0;" edge="1" parent="1">
          <mxGeometry width="50" height="50" relative="1" as="geometry">
            <mxPoint x="555" y="758.5" as="sourcePoint" />
            <mxPoint x="595" y="758.5" as="targetPoint" />
          </mxGeometry>
        </mxCell>
        <mxCell id="N5OZri8Tr2mn7tA0tru3-48" value="saldo = saldo -&amp;nbsp;&lt;br&gt;quantidade" style="rounded=1;whiteSpace=wrap;html=1;" vertex="1" parent="1">
          <mxGeometry x="800" y="739" width="110" height="40" as="geometry" />
        </mxCell>
        <mxCell id="N5OZri8Tr2mn7tA0tru3-49" value="" style="endArrow=classic;html=1;rounded=0;" edge="1" parent="1">
          <mxGeometry width="50" height="50" relative="1" as="geometry">
            <mxPoint x="735" y="758.5" as="sourcePoint" />
            <mxPoint x="785" y="758.5" as="targetPoint" />
          </mxGeometry>
        </mxCell>
        <mxCell id="N5OZri8Tr2mn7tA0tru3-51" value="" style="endArrow=classic;html=1;rounded=0;" edge="1" parent="1">
          <mxGeometry width="50" height="50" relative="1" as="geometry">
            <mxPoint x="674.5" y="798" as="sourcePoint" />
            <mxPoint x="674.5" y="835" as="targetPoint" />
          </mxGeometry>
        </mxCell>
        <mxCell id="N5OZri8Tr2mn7tA0tru3-52" value="" style="endArrow=classic;html=1;rounded=0;" edge="1" parent="1">
          <mxGeometry width="50" height="50" relative="1" as="geometry">
            <mxPoint x="860" y="779" as="sourcePoint" />
            <mxPoint x="860" y="830" as="targetPoint" />
          </mxGeometry>
        </mxCell>
        <mxCell id="N5OZri8Tr2mn7tA0tru3-58" value="Saldo inicial: &quot; + saldo" style="strokeWidth=2;html=1;shape=mxgraph.flowchart.display;whiteSpace=wrap;spacing=2;spacingRight=-3;spacingBottom=-3;" vertex="1" parent="1">
          <mxGeometry x="420" y="42" width="150" height="80" as="geometry" />
        </mxCell>
        <mxCell id="N5OZri8Tr2mn7tA0tru3-59" value="saldo" style="html=1;strokeWidth=2;shape=manualInput;whiteSpace=wrap;rounded=1;size=26;arcSize=11;spacingBottom=-10;" vertex="1" parent="1">
          <mxGeometry x="260" y="46" width="100" height="60" as="geometry" />
        </mxCell>
        <mxCell id="N5OZri8Tr2mn7tA0tru3-60" value="encerrar = &#39;n&#39;" style="strokeWidth=2;html=1;shape=mxgraph.flowchart.decision;whiteSpace=wrap;" vertex="1" parent="1">
          <mxGeometry x="447.5" y="250" width="95" height="80" as="geometry" />
        </mxCell>
        <mxCell id="N5OZri8Tr2mn7tA0tru3-61" value="tipo de entrada" style="html=1;strokeWidth=2;shape=manualInput;whiteSpace=wrap;rounded=1;size=26;arcSize=11;spacingBottom=-12;" vertex="1" parent="1">
          <mxGeometry x="442.5" y="365" width="100" height="60" as="geometry" />
        </mxCell>
        <mxCell id="N5OZri8Tr2mn7tA0tru3-62" value="quantidade" style="html=1;strokeWidth=2;shape=manualInput;whiteSpace=wrap;rounded=1;size=26;arcSize=11;spacingBottom=-12;" vertex="1" parent="1">
          <mxGeometry x="442.5" y="470" width="100" height="60" as="geometry" />
        </mxCell>
        <mxCell id="N5OZri8Tr2mn7tA0tru3-63" value="tipo de entrada = 1" style="strokeWidth=2;html=1;shape=mxgraph.flowchart.decision;whiteSpace=wrap;" vertex="1" parent="1">
          <mxGeometry x="430" y="571.25" width="130" height="112.5" as="geometry" />
        </mxCell>
        <mxCell id="N5OZri8Tr2mn7tA0tru3-65" value="&quot;Entrada: &quot; + &lt;br&gt;quantidade" style="strokeWidth=2;html=1;shape=mxgraph.flowchart.display;whiteSpace=wrap;spacing=2;spacingRight=-3;spacingBottom=-4;" vertex="1" parent="1">
          <mxGeometry x="780" y="580" width="130" height="80" as="geometry" />
        </mxCell>
        <mxCell id="N5OZri8Tr2mn7tA0tru3-66" value="tipo de entrada = 2" style="strokeWidth=2;html=1;shape=mxgraph.flowchart.decision;whiteSpace=wrap;" vertex="1" parent="1">
          <mxGeometry x="435" y="707.75" width="120" height="102.5" as="geometry" />
        </mxCell>
        <mxCell id="N5OZri8Tr2mn7tA0tru3-67" value="saldo &amp;gt;= &lt;br&gt;quantidade" style="strokeWidth=2;html=1;shape=mxgraph.flowchart.decision;whiteSpace=wrap;" vertex="1" parent="1">
          <mxGeometry x="615" y="707.75" width="120" height="102.5" as="geometry" />
        </mxCell>
        <mxCell id="N5OZri8Tr2mn7tA0tru3-68" value="&quot;Saída: &quot;&amp;nbsp; + quantidade" style="strokeWidth=2;html=1;shape=mxgraph.flowchart.display;whiteSpace=wrap;spacing=2;spacingRight=-3;spacingBottom=-4;" vertex="1" parent="1">
          <mxGeometry x="790" y="840" width="130" height="80" as="geometry" />
        </mxCell>
        <mxCell id="N5OZri8Tr2mn7tA0tru3-69" value="&quot;Saldo insuficiente&quot;" style="strokeWidth=2;html=1;shape=mxgraph.flowchart.display;whiteSpace=wrap;spacing=2;spacingRight=-3;spacingBottom=-4;" vertex="1" parent="1">
          <mxGeometry x="602.5" y="845" width="125" height="70" as="geometry" />
        </mxCell>
        <mxCell id="N5OZri8Tr2mn7tA0tru3-70" value="saldo" style="strokeWidth=2;html=1;shape=mxgraph.flowchart.display;whiteSpace=wrap;spacing=2;spacingRight=-3;spacingBottom=-4;" vertex="1" parent="1">
          <mxGeometry x="427.5" y="990" width="130" height="80" as="geometry" />
        </mxCell>
        <mxCell id="N5OZri8Tr2mn7tA0tru3-72" value="" style="edgeStyle=segmentEdgeStyle;endArrow=classic;html=1;curved=0;rounded=0;endSize=8;startSize=8;" edge="1" parent="1">
          <mxGeometry width="50" height="50" relative="1" as="geometry">
            <mxPoint x="670" y="920" as="sourcePoint" />
            <mxPoint x="510" y="950" as="targetPoint" />
            <Array as="points">
              <mxPoint x="670" y="950" />
            </Array>
          </mxGeometry>
        </mxCell>
        <mxCell id="N5OZri8Tr2mn7tA0tru3-73" value="" style="edgeStyle=segmentEdgeStyle;endArrow=classic;html=1;curved=0;rounded=0;endSize=8;startSize=8;" edge="1" parent="1">
          <mxGeometry width="50" height="50" relative="1" as="geometry">
            <mxPoint x="875" y="920" as="sourcePoint" />
            <mxPoint x="510" y="965" as="targetPoint" />
            <Array as="points">
              <mxPoint x="875" y="965" />
            </Array>
          </mxGeometry>
        </mxCell>
        <mxCell id="N5OZri8Tr2mn7tA0tru3-74" value="" style="endArrow=classic;html=1;rounded=0;" edge="1" parent="1">
          <mxGeometry width="50" height="50" relative="1" as="geometry">
            <mxPoint x="494.5" y="1070" as="sourcePoint" />
            <mxPoint x="494.5" y="1110" as="targetPoint" />
          </mxGeometry>
        </mxCell>
        <mxCell id="N5OZri8Tr2mn7tA0tru3-75" value="encerrar ? (s/n)" style="html=1;strokeWidth=2;shape=manualInput;whiteSpace=wrap;rounded=1;size=26;arcSize=11;spacingBottom=-12;" vertex="1" parent="1">
          <mxGeometry x="427.5" y="1110" width="135" height="70" as="geometry" />
        </mxCell>
        <mxCell id="N5OZri8Tr2mn7tA0tru3-76" value="" style="edgeStyle=segmentEdgeStyle;endArrow=classic;html=1;curved=0;rounded=0;endSize=8;startSize=8;exitX=0;exitY=0.75;exitDx=0;exitDy=0;" edge="1" parent="1" source="N5OZri8Tr2mn7tA0tru3-75">
          <mxGeometry width="50" height="50" relative="1" as="geometry">
            <mxPoint x="420" y="1160" as="sourcePoint" />
            <mxPoint x="420" y="290" as="targetPoint" />
            <Array as="points">
              <mxPoint x="428" y="1160" />
              <mxPoint x="320" y="1160" />
              <mxPoint x="320" y="290" />
            </Array>
          </mxGeometry>
        </mxCell>
        <mxCell id="N5OZri8Tr2mn7tA0tru3-77" value="" style="edgeStyle=segmentEdgeStyle;endArrow=classic;html=1;curved=0;rounded=0;endSize=8;startSize=8;" edge="1" parent="1">
          <mxGeometry width="50" height="50" relative="1" as="geometry">
            <mxPoint x="542.5" y="290" as="sourcePoint" />
            <mxPoint x="570" y="1260" as="targetPoint" />
            <Array as="points">
              <mxPoint x="1000" y="290" />
            </Array>
          </mxGeometry>
        </mxCell>
        <mxCell id="N5OZri8Tr2mn7tA0tru3-78" value="&quot;Sistema encerrado&quot;" style="strokeWidth=2;html=1;shape=mxgraph.flowchart.display;whiteSpace=wrap;spacing=2;spacingRight=-3;spacingBottom=-4;" vertex="1" parent="1">
          <mxGeometry x="425" y="1220" width="130" height="80" as="geometry" />
        </mxCell>
        <mxCell id="N5OZri8Tr2mn7tA0tru3-79" value="" style="endArrow=classic;html=1;rounded=0;" edge="1" parent="1">
          <mxGeometry width="50" height="50" relative="1" as="geometry">
            <mxPoint x="494.5" y="1300" as="sourcePoint" />
            <mxPoint x="494.5" y="1340" as="targetPoint" />
          </mxGeometry>
        </mxCell>
        <mxCell id="N5OZri8Tr2mn7tA0tru3-81" value="Início" style="strokeWidth=2;html=1;shape=mxgraph.flowchart.terminator;whiteSpace=wrap;" vertex="1" parent="1">
          <mxGeometry x="80" y="60" width="110" height="36" as="geometry" />
        </mxCell>
        <mxCell id="N5OZri8Tr2mn7tA0tru3-82" value="Fim" style="strokeWidth=2;html=1;shape=mxgraph.flowchart.terminator;whiteSpace=wrap;" vertex="1" parent="1">
          <mxGeometry x="432.5" y="1350" width="120" height="40" as="geometry" />
        </mxCell>
        <mxCell id="N5OZri8Tr2mn7tA0tru3-83" value="F" style="text;html=1;align=center;verticalAlign=middle;resizable=0;points=[];autosize=1;strokeColor=none;fillColor=none;fontStyle=1;fontSize=26;" vertex="1" parent="1">
          <mxGeometry x="770" y="240" width="40" height="40" as="geometry" />
        </mxCell>
        <mxCell id="N5OZri8Tr2mn7tA0tru3-84" value="V" style="text;html=1;align=center;verticalAlign=middle;resizable=0;points=[];autosize=1;strokeColor=none;fillColor=none;fontSize=21;fontStyle=1" vertex="1" parent="1">
          <mxGeometry x="440" y="340" width="40" height="40" as="geometry" />
        </mxCell>
        <mxCell id="N5OZri8Tr2mn7tA0tru3-85" value="V" style="text;html=1;align=center;verticalAlign=middle;resizable=0;points=[];autosize=1;strokeColor=none;fillColor=none;fontSize=21;fontStyle=1" vertex="1" parent="1">
          <mxGeometry x="570" y="590" width="40" height="40" as="geometry" />
        </mxCell>
        <mxCell id="N5OZri8Tr2mn7tA0tru3-86" value="F" style="text;html=1;align=center;verticalAlign=middle;resizable=0;points=[];autosize=1;strokeColor=none;fillColor=none;fontSize=17;fontStyle=1" vertex="1" parent="1">
          <mxGeometry x="460" y="683.75" width="30" height="30" as="geometry" />
        </mxCell>
        <mxCell id="N5OZri8Tr2mn7tA0tru3-87" value="V" style="text;html=1;align=center;verticalAlign=middle;resizable=0;points=[];autosize=1;strokeColor=none;fillColor=none;fontSize=21;fontStyle=1" vertex="1" parent="1">
          <mxGeometry x="562.5" y="713.75" width="40" height="40" as="geometry" />
        </mxCell>
        <mxCell id="N5OZri8Tr2mn7tA0tru3-88" value="V" style="text;html=1;align=center;verticalAlign=middle;resizable=0;points=[];autosize=1;strokeColor=none;fillColor=none;fontSize=21;fontStyle=1" vertex="1" parent="1">
          <mxGeometry x="750" y="713.75" width="40" height="40" as="geometry" />
        </mxCell>
        <mxCell id="N5OZri8Tr2mn7tA0tru3-89" value="F" style="text;html=1;align=center;verticalAlign=middle;resizable=0;points=[];autosize=1;strokeColor=none;fillColor=none;fontSize=17;fontStyle=1" vertex="1" parent="1">
          <mxGeometry x="640" y="810" width="30" height="30" as="geometry" />
        </mxCell>
        <mxCell id="N5OZri8Tr2mn7tA0tru3-90" value="F" style="text;html=1;align=center;verticalAlign=middle;resizable=0;points=[];autosize=1;strokeColor=none;fillColor=none;fontSize=26;fontStyle=1" vertex="1" parent="1">
          <mxGeometry x="447.5" y="860" width="40" height="40" as="geometry" />
        </mxCell>
      </root>
    </mxGraphModel>
  </diagram>
</mxfile>
